<?xml version="1.0" encoding="UTF-8" standalone="no"?>
<svg width="24px" height="25px" viewBox="0 0 24 25" version="1.1" xmlns="http://www.w3.org/2000/svg" xmlns:xlink="http://www.w3.org/1999/xlink" xmlns:sketch="http://www.bohemiancoding.com/sketch/ns">
    <!-- Generator: Sketch 3.2.2 (9983) - http://www.bohemiancoding.com/sketch -->
    <title>Github</title>
    <desc>Created with Sketch.</desc>
    <defs></defs>
    <g id="HOLDING-PAGE" stroke="none" stroke-width="1" fill="none" fill-rule="evenodd" sketch:type="MSPage">
        <g id="Desktop-HD" sketch:type="MSArtboardGroup" transform="translate(-1671.000000, -1011.000000)" fill="#DBDBDB">
            <path d="M1682.97647,1011.116 C1676.36324,1011.116 1671,1016.641 1671,1023.45691 C1671,1028.90842 1674.43162,1033.53418 1679.19118,1035.166 C1679.79044,1035.27964 1680.00882,1034.89858 1680.00882,1034.5713 C1680.00882,1034.27812 1679.99853,1033.50236 1679.99265,1032.47282 C1676.66103,1033.21827 1675.95809,1030.81827 1675.95809,1030.81827 C1675.41324,1029.39252 1674.62794,1029.01297 1674.62794,1029.01297 C1673.54044,1028.24706 1674.71029,1028.26297 1674.71029,1028.26297 C1675.9125,1028.35009 1676.54485,1029.53494 1676.54485,1029.53494 C1677.61397,1031.42055 1679.34853,1030.87585 1680.03088,1030.55994 C1680.13971,1029.76221 1680.44926,1029.21903 1680.79118,1028.90994 C1678.13162,1028.59858 1675.33529,1027.54024 1675.33529,1022.81145 C1675.33529,1021.46373 1675.80221,1020.36221 1676.56838,1019.49933 C1676.44559,1019.18721 1676.03456,1017.93267 1676.68603,1016.23418 C1676.68603,1016.23418 1677.69191,1015.90161 1679.97941,1017.49858 C1680.93529,1017.22509 1681.95956,1017.08797 1682.97794,1017.08342 C1683.99559,1017.08797 1685.01985,1017.22509 1685.97721,1017.49858 C1688.26324,1015.90161 1689.26765,1016.23418 1689.26765,1016.23418 C1689.92059,1017.93267 1689.50956,1019.18721 1689.38676,1019.49933 C1690.15441,1020.36221 1690.61765,1021.46373 1690.61765,1022.81145 C1690.61765,1027.55161 1687.81765,1028.59479 1685.14926,1028.90085 C1685.57941,1029.28191 1685.96176,1030.03494 1685.96176,1031.1857 C1685.96176,1032.8357 1685.94779,1034.16676 1685.94779,1034.5713 C1685.94779,1034.90161 1686.16324,1035.28494 1686.77132,1035.16448 C1691.52647,1033.52964 1694.95515,1028.90767 1694.95515,1023.45691 C1694.95515,1016.641 1689.59191,1011.116 1682.97647,1011.116" id="Github" sketch:type="MSShapeGroup"></path>
        </g>
    </g>
</svg>