<?xml version="1.0" encoding="UTF-8" standalone="no"?>
<svg width="24px" height="24px" viewBox="0 0 24 24" version="1.1" xmlns="http://www.w3.org/2000/svg" xmlns:xlink="http://www.w3.org/1999/xlink" xmlns:sketch="http://www.bohemiancoding.com/sketch/ns">
    <!-- Generator: Sketch 3.2.2 (9983) - http://www.bohemiancoding.com/sketch -->
    <title>Instagram</title>
    <desc>Created with Sketch.</desc>
    <defs></defs>
    <g id="HOLDING-PAGE" stroke="none" stroke-width="1" fill="none" fill-rule="evenodd" sketch:type="MSPage">
        <g id="Desktop-HD" sketch:type="MSArtboardGroup" transform="translate(-1602.000000, -1011.000000)" fill="#DBDBDB">
            <path d="M1621.05556,1011.116 L1606.56528,1011.116 C1604.04722,1011.116 1602,1013.16322 1602,1015.68128 L1602,1030.17294 C1602,1032.691 1604.04722,1034.73822 1606.56528,1034.73822 L1621.05556,1034.73822 C1623.57361,1034.73822 1625.62083,1032.691 1625.62083,1030.17294 L1625.62083,1015.68128 C1625.62083,1013.16322 1623.57361,1011.116 1621.05556,1011.116 L1621.05556,1011.116 Z M1622.36667,1013.83822 L1622.88889,1013.83683 L1622.88889,1017.841 L1618.89722,1017.8535 L1618.88333,1013.84933 L1622.36667,1013.83822 L1622.36667,1013.83822 Z M1610.44028,1020.50211 C1611.19583,1019.45489 1612.42361,1018.76878 1613.80972,1018.76878 C1615.19861,1018.76878 1616.425,1019.45489 1617.18056,1020.50211 C1617.675,1021.18544 1617.96944,1022.02156 1617.96944,1022.92711 C1617.96944,1025.21878 1616.10278,1027.08406 1613.80972,1027.08406 C1611.51806,1027.08406 1609.65278,1025.21878 1609.65278,1022.92711 C1609.65278,1022.02156 1609.94722,1021.18544 1610.44028,1020.50211 L1610.44028,1020.50211 Z M1623.31944,1030.17294 C1623.31944,1031.42156 1622.30556,1032.43544 1621.05556,1032.43544 L1606.56528,1032.43544 C1605.31528,1032.43544 1604.30139,1031.42156 1604.30139,1030.17294 L1604.30139,1020.50211 L1607.82778,1020.50211 C1607.52222,1021.25211 1607.35139,1022.07017 1607.35139,1022.92711 C1607.35139,1026.48822 1610.24861,1029.38683 1613.80972,1029.38683 C1617.37222,1029.38683 1620.26944,1026.48822 1620.26944,1022.92711 C1620.26944,1022.07017 1620.09722,1021.25211 1619.79306,1020.50211 L1623.31944,1020.50211 L1623.31944,1030.17294 L1623.31944,1030.17294 Z" id="Instagram" sketch:type="MSShapeGroup"></path>
        </g>
    </g>
</svg>