<?xml version="1.0" encoding="UTF-8" standalone="no"?>
<svg width="200px" height="74px" viewBox="0 0 200 74" version="1.1" xmlns="http://www.w3.org/2000/svg" xmlns:xlink="http://www.w3.org/1999/xlink" xmlns:sketch="http://www.bohemiancoding.com/sketch/ns">
    <!-- Generator: Sketch 3.2.2 (9983) - http://www.bohemiancoding.com/sketch -->
    <title>Imported Layers@2x</title>
    <desc>Created with Sketch.</desc>
    <defs></defs>
    <g id="HOLDING-PAGE" stroke="none" stroke-width="1" fill="none" fill-rule="evenodd" sketch:type="MSPage">
        <g id="Desktop-HD" sketch:type="MSArtboardGroup" transform="translate(-125.000000, -155.000000)" fill="#FFFFFF">
            <g id="Imported-Layers" sketch:type="MSLayerGroup" transform="translate(125.000000, 154.360000)">
                <path d="M0.227464789,11.2346095 L4.58239437,11.2346095 L4.58239437,13.9874095 L4.6584507,13.9874095 C5.32112676,12.8661333 6.21197183,12.0507238 7.33309859,11.541181 C8.45352113,11.0309333 9.66338028,10.7758095 10.9619718,10.7758095 C12.3626761,10.7758095 13.6232394,11.0245905 14.7443662,11.5214476 C15.8647887,12.0183048 16.8197183,12.7005143 17.6098592,13.5673714 C18.3985915,14.4335238 18.9971831,15.4533143 19.4049296,16.6253333 C19.8119718,17.7980571 20.0161972,19.059581 20.0161972,20.4106095 C20.0161972,21.7616381 19.8,23.0231619 19.3669014,24.195181 C18.9338028,25.3679048 18.3288732,26.3876952 17.5521127,27.2538476 C16.7753521,28.1207048 15.8394366,28.8022095 14.7443662,29.2997714 C13.6492958,29.7966286 12.4521127,30.0447048 11.1535211,30.0447048 C10.2873239,30.0447048 9.52323944,29.9552 8.86126761,29.7776 C8.19859155,29.5985905 7.61267606,29.3702476 7.10352113,29.0890476 C6.5943662,28.8092571 6.16126761,28.5097333 5.80492958,28.1904762 C5.44788732,27.8719238 5.1556338,27.5597143 4.92605634,27.2538476 L4.81126761,27.2538476 L4.81126761,38.3031048 L0.227464789,38.3031048 L0.227464789,11.2346095 L0.227464789,11.2346095 Z M15.4323944,20.4106095 C15.4323944,19.6973905 15.3112676,19.0088381 15.0690141,18.3463619 C14.8267606,17.6838857 14.4704225,17.0975238 13.9992958,16.5872762 C13.528169,16.0777333 12.9612676,15.6696762 12.2992958,15.3638095 C11.6366197,15.0579429 10.8859155,14.9050095 10.0457746,14.9050095 C9.20492958,14.9050095 8.45352113,15.0579429 7.7915493,15.3638095 C7.12887324,15.6696762 6.56267606,16.0777333 6.0915493,16.5872762 C5.61971831,17.0975238 5.26338028,17.6838857 5.02183099,18.3463619 C4.77957746,19.0088381 4.6584507,19.6973905 4.6584507,20.4106095 C4.6584507,21.1245333 4.77957746,21.812381 5.02183099,22.4748571 C5.26338028,23.1380381 5.61971831,23.7244 6.0915493,24.2339429 C6.56267606,24.7441905 7.12887324,25.1515429 7.7915493,25.4574095 C8.45352113,25.7632762 9.20492958,25.9162095 10.0457746,25.9162095 C10.8859155,25.9162095 11.6366197,25.7632762 12.2992958,25.4574095 C12.9612676,25.1515429 13.528169,24.7441905 13.9992958,24.2339429 C14.4704225,23.7244 14.8267606,23.1380381 15.0690141,22.4748571 C15.3112676,21.812381 15.4323944,21.1245333 15.4323944,20.4106095 L15.4323944,20.4106095 Z" id="Fill-1" sketch:type="MSShapeGroup"></path>
                <path d="M22.6521127,0.682914286 L27.2366197,0.682914286 L27.2366197,29.5859048 L22.6521127,29.5859048 L22.6521127,0.682914286 Z" id="Fill-2" sketch:type="MSShapeGroup"></path>
                <path d="M42.7457746,27.0628571 L42.6316901,27.0628571 C41.9690141,28.108019 41.1288732,28.8663429 40.1105634,29.3378286 C39.0915493,29.8093143 37.9711268,30.0447048 36.7485915,30.0447048 C35.9077465,30.0447048 35.0866197,29.9305333 34.284507,29.700781 C33.4816901,29.4717333 32.7690141,29.1271048 32.1450704,28.6690095 C31.5204225,28.2095048 31.0183099,27.6365333 30.6359155,26.947981 C30.2535211,26.2601333 30.0633803,25.4574095 30.0633803,24.5398095 C30.0633803,23.5453905 30.2408451,22.6982667 30.5978873,21.9970286 C30.9542254,21.2964952 31.4316901,20.7101333 32.0302817,20.2386476 C32.628169,19.7671619 33.3232394,19.3915238 34.1126761,19.1103238 C34.9014085,18.8305333 35.7225352,18.6205143 36.5760563,18.4802667 C37.4295775,18.340019 38.2887324,18.2505143 39.1549296,18.2124571 C40.0204225,18.1744 40.8359155,18.1546667 41.6,18.1546667 L42.7457746,18.1546667 L42.7457746,17.6578095 C42.7457746,16.5111619 42.3514085,15.6506476 41.5619718,15.0769714 C40.7725352,14.504 39.7661972,14.2171619 38.5443662,14.2171619 C37.5760563,14.2171619 36.671831,14.3891238 35.8316901,14.7330476 C34.9908451,15.0769714 34.265493,15.542819 33.6542254,16.1284762 L31.2471831,13.7203048 C32.265493,12.6751429 33.456338,11.9231619 34.8190141,11.4643619 C36.1816901,11.0055619 37.5887324,10.7758095 39.0408451,10.7758095 C40.3394366,10.7758095 41.434507,10.9231048 42.3260563,11.215581 C43.2176056,11.5094667 43.9556338,11.8851048 44.5415493,12.3439048 C45.1274648,12.8027048 45.5795775,13.331981 45.8978873,13.9303238 C46.2161972,14.5293714 46.4457746,15.1347619 46.5859155,15.7464952 C46.7253521,16.3582286 46.8084507,16.9502286 46.8338028,17.5239048 C46.8591549,18.097581 46.871831,18.600781 46.871831,19.0342095 L46.871831,29.5859048 L42.7457746,29.5859048 L42.7457746,27.0628571 L42.7457746,27.0628571 Z M42.4788732,21.3662667 L41.5239437,21.3662667 C40.8866197,21.3662667 40.1739437,21.3923429 39.384507,21.4430857 C38.5950704,21.4945333 37.85,21.6150476 37.15,21.8060381 C36.4492958,21.9970286 35.856338,22.2782286 35.3732394,22.646819 C34.8894366,23.016819 34.6471831,23.5334095 34.6471831,24.195181 C34.6471831,24.6293143 34.7429577,24.9922667 34.9338028,25.2847429 C35.1246479,25.5786286 35.3732394,25.8267048 35.6788732,26.030381 C35.984507,26.2347619 36.328169,26.3813524 36.7098592,26.4701524 C37.0922535,26.5596571 37.4739437,26.6040571 37.856338,26.6040571 C39.4352113,26.6040571 40.6,26.228419 41.3521127,25.4764381 C42.1028169,24.7251619 42.4788732,23.6983238 42.4788732,22.3987429 L42.4788732,21.3662667 L42.4788732,21.3662667 Z" id="Fill-3" sketch:type="MSShapeGroup"></path>
                <path d="M47.5978873,11.2346095 L52.6408451,11.2346095 L57.7598592,23.9661333 L57.8359155,23.9661333 L62.4204225,11.2346095 L67.1957746,11.2346095 L58.5232394,33.5241143 C58.1922535,34.3902667 57.8295775,35.1492952 57.4352113,35.7990857 C57.0394366,36.4488762 56.5753521,36.9964762 56.0408451,37.4425905 C55.5056338,37.8887048 54.8753521,38.2199429 54.1492958,38.4370095 C53.4239437,38.6533714 52.5507042,38.7619048 51.5323944,38.7619048 C50.3352113,38.7619048 49.1640845,38.6089714 48.0183099,38.3031048 L48.5908451,34.1739048 C48.9471831,34.3014667 49.3225352,34.4092952 49.7183099,34.4988 C50.1126761,34.5876 50.5133803,34.6327048 50.9211268,34.6327048 C51.4809859,34.6327048 51.9528169,34.5812571 52.334507,34.4797714 C52.7169014,34.377581 53.0415493,34.2183048 53.3091549,34.0019429 C53.5767606,33.785581 53.7985915,33.5050857 53.9774648,33.1611619 C54.1556338,32.8165333 54.3464789,32.4021333 54.5507042,31.9179619 L55.4288732,29.7388381 L47.5978873,11.2346095" id="Fill-4" sketch:type="MSShapeGroup"></path>
                <path d="M86.8697183,11.2346095 L86.8697183,27.9424 C86.8697183,29.5985905 86.665493,31.0962095 86.2584507,32.4345524 C85.8507042,33.7728952 85.2204225,34.9061524 84.3676056,35.8371429 C83.5140845,36.7674286 82.4387324,37.4869905 81.1394366,37.9972381 C79.8408451,38.506781 78.2992958,38.7619048 76.5169014,38.7619048 C74.8105634,38.7619048 73.193662,38.5448381 71.6647887,38.1121143 C70.1373239,37.677981 68.7232394,36.8886476 67.4246479,35.7412952 L70.1753521,31.994781 C71.0922535,32.8362667 72.0471831,33.4860571 73.0408451,33.9448571 C74.0338028,34.4036571 75.1795775,34.6327048 76.4788732,34.6327048 C77.5732394,34.6327048 78.4971831,34.4797714 79.2485915,34.1739048 C79.9992958,33.8680381 80.5978873,33.4472952 81.043662,32.912381 C81.4894366,32.3774667 81.8084507,31.7333143 81.9992958,30.9820381 C82.1901408,30.2293524 82.2859155,29.3949143 82.2859155,28.4773143 L82.2859155,27.1396762 L82.2091549,27.1396762 C81.5464789,28.0319048 80.6683099,28.7007238 79.5732394,29.1461333 C78.478169,29.5922476 77.3570423,29.8156571 76.2112676,29.8156571 C74.8359155,29.8156571 73.5880282,29.5668762 72.4676056,29.070019 C71.3464789,28.5731619 70.3852113,27.9043429 69.5830986,27.0628571 C68.7809859,26.2220762 68.1633803,25.2276571 67.7302817,24.0810095 C67.2971831,22.9336571 67.0809859,21.7101905 67.0809859,20.4106095 C67.0809859,19.059581 67.284507,17.7980571 67.6922535,16.6253333 C68.0992958,15.4533143 68.6978873,14.4335238 69.4873239,13.5673714 C70.2767606,12.7005143 71.2260563,12.0183048 72.3338028,11.5214476 C73.4415493,11.0245905 74.7084507,10.7758095 76.1352113,10.7758095 C77.4338028,10.7758095 78.6429577,11.0309333 79.7640845,11.541181 C80.884507,12.0507238 81.7753521,12.8661333 82.4387324,13.9874095 L82.5147887,13.9874095 L82.5147887,11.2346095 L86.8697183,11.2346095 L86.8697183,11.2346095 Z M77.0901408,14.9050095 C76.2746479,14.9050095 75.5366197,15.0389143 74.8739437,15.3067238 C74.2119718,15.5745333 73.6450704,15.9438286 73.1739437,16.4153143 C72.7028169,16.8875048 72.3338028,17.4604762 72.0661972,18.1356381 C71.7985915,18.8115048 71.6647887,19.5571429 71.6647887,20.3725524 C71.6647887,21.1118476 71.7985915,21.7996952 72.0661972,22.4368 C72.3338028,23.0746095 72.7091549,23.6356 73.193662,24.1190667 C73.6767606,24.6032381 74.25,24.9859238 74.9126761,25.2657143 C75.5746479,25.5469143 76.2873239,25.6864571 77.0521127,25.6864571 C77.8922535,25.6864571 78.65,25.5469143 79.3253521,25.2657143 C79.9992958,24.9859238 80.5725352,24.6102857 81.043662,24.1380952 C81.5147887,23.6666095 81.8774648,23.099981 82.1330986,22.4368 C82.3873239,21.7743238 82.5147887,21.0604 82.5147887,20.2957333 C82.5147887,18.6902857 82.0309859,17.39 81.0633803,16.3962857 C80.0950704,15.4025714 78.7711268,14.9050095 77.0901408,14.9050095 L77.0901408,14.9050095 Z" id="Fill-5" sketch:type="MSShapeGroup"></path>
                <path d="M90.1549296,11.2346095 L94.7394366,11.2346095 L94.7394366,14.1403429 L94.815493,14.1403429 C95.3246479,13.0698095 96.0507042,12.242419 96.993662,11.6553524 C97.9352113,11.0696952 99.0176056,10.7758095 100.240845,10.7758095 C100.520423,10.7758095 100.794366,10.8018857 101.061972,10.8526286 C101.328873,10.9040762 101.602817,10.9675048 101.883099,11.043619 L101.883099,15.4786857 C101.501408,15.3772 101.125352,15.2940381 100.756338,15.2299048 C100.38662,15.1664762 100.023944,15.1347619 99.6676056,15.1347619 C98.5978873,15.1347619 97.7380282,15.3320952 97.0887324,15.7274667 C96.4394366,16.1228381 95.9429577,16.5745905 95.5992958,17.0841333 C95.2549296,17.594381 95.0253521,18.1039238 94.9112676,18.6134667 C94.7964789,19.1237143 94.7394366,19.5064 94.7394366,19.760819 L94.7394366,29.5859048 L90.1549296,29.5859048 L90.1549296,11.2346095" id="Fill-6" sketch:type="MSShapeGroup"></path>
                <path d="M102.761972,20.4106095 C102.761972,18.9580952 103.022535,17.638781 103.54507,16.4533714 C104.066197,15.2686667 104.773239,14.255219 105.664789,13.4144381 C106.556338,12.5729524 107.61338,11.9231619 108.835915,11.4643619 C110.058451,11.0055619 111.357746,10.7758095 112.732394,10.7758095 C114.107746,10.7758095 115.407042,11.0055619 116.629577,11.4643619 C117.851408,11.9231619 118.908451,12.5729524 119.8,13.4144381 C120.691549,14.255219 121.397887,15.2686667 121.920423,16.4533714 C122.441549,17.638781 122.703521,18.9580952 122.703521,20.4106095 C122.703521,21.8631238 122.441549,23.1824381 121.920423,24.3678476 C121.397887,25.5525524 120.691549,26.566 119.8,27.406781 C118.908451,28.2482667 117.851408,28.8980571 116.629577,29.3568571 C115.407042,29.8156571 114.107746,30.0447048 112.732394,30.0447048 C111.357746,30.0447048 110.058451,29.8156571 108.835915,29.3568571 C107.61338,28.8980571 106.556338,28.2482667 105.664789,27.406781 C104.773239,26.566 104.066197,25.5525524 103.54507,24.3678476 C103.022535,23.1824381 102.761972,21.8631238 102.761972,20.4106095 L102.761972,20.4106095 Z M107.345775,20.4106095 C107.345775,21.1245333 107.466901,21.812381 107.709155,22.4748571 C107.950704,23.1380381 108.307042,23.7244 108.778873,24.2339429 C109.249296,24.7441905 109.816197,25.1515429 110.478873,25.4574095 C111.140845,25.7632762 111.892254,25.9162095 112.732394,25.9162095 C113.573239,25.9162095 114.323944,25.7632762 114.98662,25.4574095 C115.648592,25.1515429 116.214789,24.7441905 116.68662,24.2339429 C117.157746,23.7244 117.514085,23.1380381 117.756338,22.4748571 C117.997887,21.812381 118.119014,21.1245333 118.119014,20.4106095 C118.119014,19.6973905 117.997887,19.0088381 117.756338,18.3463619 C117.514085,17.6838857 117.157746,17.0975238 116.68662,16.5872762 C116.214789,16.0777333 115.648592,15.6696762 114.98662,15.3638095 C114.323944,15.0579429 113.573239,14.9050095 112.732394,14.9050095 C111.892254,14.9050095 111.140845,15.0579429 110.478873,15.3638095 C109.816197,15.6696762 109.249296,16.0777333 108.778873,16.5872762 C108.307042,17.0975238 107.950704,17.6838857 107.709155,18.3463619 C107.466901,19.0088381 107.345775,19.6973905 107.345775,20.4106095 L107.345775,20.4106095 Z" id="Fill-7" sketch:type="MSShapeGroup"></path>
                <path d="M141.804225,29.5859048 L137.449296,29.5859048 L137.449296,26.6421143 L137.372535,26.6421143 C136.939437,27.5597143 136.277465,28.3568 135.385915,29.0319619 C134.494366,29.7071238 133.284507,30.0447048 131.757042,30.0447048 C130.534507,30.0447048 129.496479,29.8473714 128.642958,29.452 C127.789437,29.0573333 127.095775,28.522419 126.561268,27.8465524 C126.026761,27.1713905 125.644366,26.400381 125.414789,25.5335238 C125.185915,24.6673714 125.071127,23.7624571 125.071127,22.8194857 L125.071127,11.2346095 L129.655634,11.2346095 L129.655634,20.5254857 C129.655634,21.0357333 129.680986,21.6023619 129.73169,22.226781 C129.783099,22.8512 129.916901,23.4375619 130.133099,23.9851619 C130.349296,24.5334667 130.680282,24.9922667 131.126056,25.3615619 C131.571831,25.7315619 132.202113,25.9162095 133.017606,25.9162095 C133.78169,25.9162095 134.424648,25.7886476 134.946479,25.5335238 C135.46831,25.2791048 135.901408,24.935181 136.245775,24.5010476 C136.589437,24.0683238 136.838028,23.5714667 136.990845,23.0104762 C137.143662,22.4501905 137.219718,21.8631238 137.219718,21.2513905 L137.219718,11.2346095 L141.804225,11.2346095 L141.804225,29.5859048" id="Fill-8" sketch:type="MSShapeGroup"></path>
                <path d="M145.280282,11.2346095 L149.635211,11.2346095 L149.635211,13.9874095 L149.711972,13.9874095 C150.373239,12.8661333 151.264789,12.0507238 152.385915,11.541181 C153.506338,11.0309333 154.716197,10.7758095 156.014789,10.7758095 C157.415493,10.7758095 158.676056,11.0245905 159.797183,11.5214476 C160.917606,12.0183048 161.872535,12.7005143 162.662676,13.5673714 C163.451408,14.4335238 164.05,15.4533143 164.457746,16.6253333 C164.864789,17.7980571 165.069014,19.059581 165.069014,20.4106095 C165.069014,21.7616381 164.852817,23.0231619 164.419718,24.195181 C163.98662,25.3679048 163.38169,26.3876952 162.60493,27.2538476 C161.828169,28.1207048 160.892254,28.8022095 159.797183,29.2997714 C158.702113,29.7966286 157.50493,30.0447048 156.206338,30.0447048 C155.340141,30.0447048 154.576056,29.9552 153.914085,29.7776 C153.251408,29.5985905 152.666197,29.3702476 152.156338,29.0890476 C151.647183,28.8092571 151.214085,28.5097333 150.857746,28.1904762 C150.500704,27.8719238 150.208451,27.5597143 149.978873,27.2538476 L149.864085,27.2538476 L149.864085,38.3031048 L145.280282,38.3031048 L145.280282,11.2346095 L145.280282,11.2346095 Z M160.485211,20.4106095 C160.485211,19.6973905 160.364085,19.0088381 160.121831,18.3463619 C159.879577,17.6838857 159.523239,17.0975238 159.052113,16.5872762 C158.580986,16.0777333 158.014085,15.6696762 157.352113,15.3638095 C156.689437,15.0579429 155.938732,14.9050095 155.098592,14.9050095 C154.257746,14.9050095 153.506338,15.0579429 152.844366,15.3638095 C152.18169,15.6696762 151.615493,16.0777333 151.144366,16.5872762 C150.672535,17.0975238 150.316197,17.6838857 150.074648,18.3463619 C149.832394,19.0088381 149.711972,19.6973905 149.711972,20.4106095 C149.711972,21.1245333 149.832394,21.812381 150.074648,22.4748571 C150.316197,23.1380381 150.672535,23.7244 151.144366,24.2339429 C151.615493,24.7441905 152.18169,25.1515429 152.844366,25.4574095 C153.506338,25.7632762 154.257746,25.9162095 155.098592,25.9162095 C155.938732,25.9162095 156.689437,25.7632762 157.352113,25.4574095 C158.014085,25.1515429 158.580986,24.7441905 159.052113,24.2339429 C159.523239,23.7244 159.879577,23.1380381 160.121831,22.4748571 C160.364085,21.812381 160.485211,21.1245333 160.485211,20.4106095 L160.485211,20.4106095 Z" id="Fill-9" sketch:type="MSShapeGroup"></path>
                <path d="M114.55,62.0282095 L114.473239,62.0282095 C113.810563,63.1501905 112.919014,63.9656 111.799296,64.4751429 C110.678169,64.9846857 109.469014,65.2398095 108.169718,65.2398095 C106.743662,65.2398095 105.476761,64.9910286 104.36831,64.4941714 C103.260563,63.9973143 102.311268,63.3158095 101.522535,62.4489524 C100.732394,61.5828 100.133803,60.5630095 99.7267606,59.3902857 C99.3190141,58.2182667 99.115493,56.9567429 99.115493,55.6050095 C99.115493,54.2546857 99.3316901,52.9931619 99.765493,51.8204381 C100.197887,50.648419 100.802817,49.6286286 101.579577,48.7617714 C102.356338,47.895619 103.292254,47.2134095 104.387324,46.7165524 C105.482394,46.2196952 106.680282,45.9709143 107.978873,45.9709143 C108.844366,45.9709143 109.608451,46.060419 110.271127,46.2387238 C110.933099,46.4170286 111.51831,46.646781 112.028169,46.9265714 C112.537324,47.2077714 112.970423,47.5065905 113.327465,47.8251429 C113.683803,48.1444 113.976761,48.4559048 114.205634,48.7617714 L114.320423,48.7617714 L114.320423,35.8773143 L118.90493,35.8773143 L118.90493,64.7810095 L114.55,64.7810095 L114.55,62.0282095 L114.55,62.0282095 Z M103.7,55.6050095 C103.7,56.3189333 103.820423,57.0074857 104.06338,57.6699619 C104.30493,58.3331429 104.661268,58.9188 105.132394,59.4283429 C105.603521,59.9385905 106.169718,60.3459429 106.832394,60.6518095 C107.49507,60.9576762 108.245775,61.1106095 109.08662,61.1106095 C109.927465,61.1106095 110.678169,60.9576762 111.340845,60.6518095 C112.002817,60.3459429 112.569014,59.9385905 113.040845,59.4283429 C113.511972,58.9188 113.867606,58.3331429 114.110563,57.6699619 C114.352113,57.0074857 114.473239,56.3189333 114.473239,55.6050095 C114.473239,54.8917905 114.352113,54.2039429 114.110563,53.5407619 C113.867606,52.8782857 113.511972,52.2919238 113.040845,51.782381 C112.569014,51.2721333 112.002817,50.864781 111.340845,50.5582095 C110.678169,50.2530476 109.927465,50.1001143 109.08662,50.1001143 C108.245775,50.1001143 107.49507,50.2530476 106.832394,50.5582095 C106.169718,50.864781 105.603521,51.2721333 105.132394,51.782381 C104.661268,52.2919238 104.30493,52.8782857 104.06338,53.5407619 C103.820423,54.2039429 103.7,54.8917905 103.7,55.6050095 L103.7,55.6050095 Z" id="Fill-10" sketch:type="MSShapeGroup"></path>
                <path d="M121.998592,40.1975048 C121.998592,39.4589143 122.272535,38.8154667 122.820423,38.2671619 C123.367606,37.7195619 124.061268,37.4454095 124.902113,37.4454095 C125.742254,37.4454095 126.449296,37.7068762 127.022535,38.2291048 C127.595775,38.7513333 127.88169,39.4081714 127.88169,40.1975048 C127.88169,40.9882476 127.595775,41.6450857 127.022535,42.1666095 C126.449296,42.6895429 125.742254,42.9503048 124.902113,42.9503048 C124.061268,42.9503048 123.367606,42.6768571 122.820423,42.1285524 C122.272535,41.5809524 121.998592,40.9375048 121.998592,40.1975048 L121.998592,40.1975048 Z M122.647887,46.4297143 L127.232394,46.4297143 L127.232394,64.7810095 L122.647887,64.7810095 L122.647887,46.4297143 Z" id="Fill-11" sketch:type="MSShapeGroup"></path>
                <path d="M149.848592,46.4297143 L149.848592,63.1368 C149.848592,64.7936952 149.644366,66.2913143 149.237324,67.6296571 C148.829577,68.9672952 148.199296,70.1012571 147.346479,71.0315429 C146.492958,71.9618286 145.416901,72.6813905 144.11831,73.1916381 C142.819014,73.7018857 141.278169,73.9563048 139.495775,73.9563048 C137.789437,73.9563048 136.171831,73.7399429 134.643662,73.3065143 C133.116197,72.8730857 131.702113,72.0830476 130.403521,70.9364 L133.154225,67.189181 C134.071127,68.0306667 135.026056,68.6804571 136.019014,69.1392571 C137.012676,69.5980571 138.158451,69.8278095 139.457746,69.8278095 C140.552113,69.8278095 141.475352,69.6748762 142.226761,69.3683048 C142.978169,69.0631429 143.576761,68.6424 144.022535,68.106781 C144.467606,67.5718667 144.78662,66.9277143 144.977465,66.1764381 C145.16831,65.4244571 145.264085,64.590019 145.264085,63.672419 L145.264085,62.3340762 L145.188028,62.3340762 C144.525352,63.2263048 143.646479,63.8958286 142.552113,64.3412381 C141.456338,64.7866476 140.335915,65.0100571 139.190141,65.0100571 C137.814789,65.0100571 136.566197,64.761981 135.446479,64.2651238 C134.325352,63.7682667 133.364085,63.0987429 132.561972,62.2579619 C131.759859,61.4164762 131.141549,60.4227619 130.709155,59.2754095 C130.275352,58.1287619 130.059859,56.9052952 130.059859,55.6050095 C130.059859,54.2546857 130.262676,52.9931619 130.671127,51.8204381 C131.077465,50.648419 131.676056,49.6286286 132.466197,48.7617714 C133.255634,47.895619 134.204225,47.2134095 135.312676,46.7165524 C136.420423,46.2196952 137.687324,45.9709143 139.11338,45.9709143 C140.412676,45.9709143 141.621831,46.2260381 142.742958,46.735581 C143.86338,47.2458286 144.754225,48.0612381 145.416901,49.1825143 L145.493662,49.1825143 L145.493662,46.4297143 L149.848592,46.4297143 L149.848592,46.4297143 Z M140.069014,50.1001143 C139.253521,50.1001143 138.514789,50.234019 137.852817,50.5018286 C137.190141,50.7689333 136.623944,51.1389333 136.152817,51.6097143 C135.68169,52.0819048 135.312676,52.655581 135.04507,53.3307429 C134.777465,54.0059048 134.643662,54.7515429 134.643662,55.5669524 C134.643662,56.3062476 134.777465,56.9948 135.04507,57.6312 C135.312676,58.2690095 135.688028,58.83 136.171831,59.3134667 C136.655634,59.7983429 137.228873,60.1803238 137.891549,60.460819 C138.553521,60.7413143 139.266197,60.8808571 140.030282,60.8808571 C140.871127,60.8808571 141.628169,60.7413143 142.303521,60.460819 C142.978169,60.1803238 143.550704,59.8046857 144.022535,59.3324952 C144.493662,58.8617143 144.856338,58.2950857 145.111268,57.6312 C145.365493,56.9687238 145.493662,56.2555048 145.493662,55.4908381 C145.493662,53.8846857 145.009155,52.5851048 144.041549,51.5906857 C143.073239,50.5969714 141.75,50.1001143 140.069014,50.1001143 L140.069014,50.1001143 Z" id="Fill-12" sketch:type="MSShapeGroup"></path>
                <path d="M152.751408,40.1975048 C152.751408,39.4589143 153.024648,38.8154667 153.572535,38.2671619 C154.120423,37.7195619 154.814085,37.4454095 155.65493,37.4454095 C156.49507,37.4454095 157.202113,37.7068762 157.775352,38.2291048 C158.347887,38.7513333 158.634507,39.4081714 158.634507,40.1975048 C158.634507,40.9882476 158.347887,41.6450857 157.775352,42.1666095 C157.202113,42.6895429 156.49507,42.9503048 155.65493,42.9503048 C154.814085,42.9503048 154.120423,42.6768571 153.572535,42.1285524 C153.024648,41.5809524 152.751408,40.9375048 152.751408,40.1975048 L152.751408,40.1975048 Z M153.400704,46.4297143 L157.985211,46.4297143 L157.985211,64.7810095 L153.400704,64.7810095 L153.400704,46.4297143 Z" id="Fill-13" sketch:type="MSShapeGroup"></path>
                <path d="M160.162676,50.3291619 L160.162676,46.4297143 L163.944366,46.4297143 L163.944366,41.1158095 L168.528873,41.1158095 L168.528873,46.4297143 L173.571831,46.4297143 L173.571831,50.3291619 L168.528873,50.3291619 L168.528873,58.3578095 C168.528873,59.2754095 168.700704,60.002019 169.044366,60.5376381 C169.388028,61.0725524 170.069014,61.3403619 171.088028,61.3403619 C171.495775,61.3403619 171.941549,61.2959619 172.425352,61.2064571 C172.909155,61.1169524 173.290845,60.9710667 173.571831,60.7666857 L173.571831,64.6280762 C173.087324,64.8571238 172.49507,65.0164 171.79507,65.1059048 C171.094366,65.1947048 170.477465,65.2398095 169.942254,65.2398095 C168.719718,65.2398095 167.719718,65.1059048 166.942958,64.8380952 C166.166197,64.5709905 165.55493,64.1629333 165.109859,63.6146286 C164.66338,63.0670286 164.358451,62.3855238 164.192958,61.5694095 C164.026761,60.754 163.944366,59.8103238 163.944366,58.7404952 L163.944366,50.3291619 L160.162676,50.3291619" id="Fill-14" sketch:type="MSShapeGroup"></path>
                <path d="M187.855634,62.2579619 L187.740845,62.2579619 C187.078169,63.3031238 186.238028,64.0607429 185.219718,64.5322286 C184.200704,65.0037143 183.080282,65.2398095 181.857746,65.2398095 C181.016901,65.2398095 180.195775,65.1249333 179.393662,64.8958857 C178.590845,64.6661333 177.878169,64.3222095 177.254225,63.8634095 C176.629577,63.4046095 176.127465,62.8309333 175.74507,62.1430857 C175.36338,61.4552381 175.172535,60.6518095 175.172535,59.7342095 C175.172535,58.7404952 175.35,57.8933714 175.707042,57.1921333 C176.06338,56.4908952 176.540845,55.9052381 177.139437,55.4330476 C177.738028,54.9622667 178.432394,54.5859238 179.221831,54.3054286 C180.010563,54.0249333 180.83169,53.8149143 181.685915,53.6746667 C182.538732,53.5351238 183.397887,53.4449143 184.264085,53.4068571 C185.129577,53.3688 185.94507,53.3497714 186.709155,53.3497714 L187.855634,53.3497714 L187.855634,52.8522095 C187.855634,51.7055619 187.460563,50.8450476 186.671127,50.2720762 C185.88169,49.6984 184.875352,49.4115619 183.653521,49.4115619 C182.685211,49.4115619 181.780986,49.5835238 180.940845,49.9274476 C180.1,50.2720762 179.374648,50.737219 178.76338,51.323581 L176.356338,48.9147048 C177.374648,47.8702476 178.565493,47.1175619 179.928169,46.6594667 C181.290845,46.1999619 182.697887,45.9709143 184.15,45.9709143 C185.448592,45.9709143 186.543662,46.1175048 187.435211,46.4106857 C188.326761,46.7038667 189.064789,47.0795048 189.650704,47.5383048 C190.23662,47.9971048 190.688732,48.526381 191.007042,49.1247238 C191.325352,49.7244762 191.55493,50.3291619 191.69507,50.9408952 C191.834507,51.5526286 191.917606,52.1453333 191.942958,52.7190095 C191.96831,53.291981 191.980986,53.7958857 191.980986,54.2293143 L191.980986,64.7810095 L187.855634,64.7810095 L187.855634,62.2579619 L187.855634,62.2579619 Z M187.588028,56.5613714 L186.633099,56.5613714 C185.995775,56.5613714 185.283099,56.5867429 184.493662,56.6374857 C183.704225,56.6889333 182.959155,56.8094476 182.259155,57.0004381 C181.558451,57.1921333 180.965493,57.4726286 180.482394,57.8419238 C179.998592,58.2119238 179.756338,58.7278095 179.756338,59.3902857 C179.756338,59.8237143 179.852113,60.1873714 180.042958,60.4798476 C180.233803,60.7730286 180.482394,61.0218095 180.788028,61.2254857 C181.093662,61.4298667 181.437324,61.5757524 181.819014,61.6652571 C182.201408,61.7547619 182.583099,61.7991619 182.965493,61.7991619 C184.544366,61.7991619 185.709155,61.4235238 186.461268,60.6708381 C187.211972,59.9195619 187.588028,58.8934286 187.588028,57.5931429 L187.588028,56.5613714 L187.588028,56.5613714 Z" id="Fill-15" sketch:type="MSShapeGroup"></path>
                <path d="M195.266197,35.8773143 L199.85,35.8773143 L199.85,64.7803048 L195.266197,64.7803048 L195.266197,35.8773143 Z" id="Fill-16" sketch:type="MSShapeGroup"></path>
            </g>
        </g>
    </g>
</svg>