<?xml version="1.0" encoding="UTF-8" standalone="no"?>
<svg width="25px" height="22px" viewBox="0 0 25 22" version="1.1" xmlns="http://www.w3.org/2000/svg" xmlns:xlink="http://www.w3.org/1999/xlink" xmlns:sketch="http://www.bohemiancoding.com/sketch/ns">
    <!-- Generator: Sketch 3.2.2 (9983) - http://www.bohemiancoding.com/sketch -->
    <title>final shape</title>
    <desc>Created with Sketch.</desc>
    <defs></defs>
    <g id="HOLDING-PAGE" stroke="none" stroke-width="1" fill="none" fill-rule="evenodd" sketch:type="MSPage">
        <g id="Desktop-HD" sketch:type="MSArtboardGroup" transform="translate(-1534.000000, -1013.000000)" fill="#DBDBDB">
            <path d="M1536.88462,1026 C1537.13947,1026.44385 1537.44092,1026.47389 1537.84615,1026 C1538.29097,1026.47389 1538.81303,1026.38078 1539.76923,1026 C1536.90444,1025.79801 1535.0711,1023.54835 1534.96154,1021 C1535.0711,1020.79259 1535.07154,1020.75061 1534.96154,1021 C1535.78236,1021.14562 1536.60023,1021.40038 1537.84615,1021 C1536.03183,1020.45796 1535.0711,1018.73668 1534.96154,1017 C1535.0711,1015.75232 1535.33008,1014.79794 1535.92308,1014 C1538.33384,1017.29118 1542.07959,1019.48253 1546.5,1020 C1546.22447,1019.39539 1546.18372,1018.99577 1546.5,1019 C1546.18372,1015.50086 1548.49154,1013 1551.30769,1013 C1552.82567,1013 1554.16585,1013.68259 1555.15385,1015 C1556.27406,1014.5735 1557.35904,1014.1045 1558.03846,1013 C1557.95683,1014.72017 1557.16166,1015.80648 1556.11538,1016 C1557.1395,1016.37432 1558.10904,1016.07228 1559,1016 C1558.36174,1016.75087 1557.50437,1017.72192 1556.11538,1018 C1556.49261,1018.50373 1556.49302,1018.54473 1556.11538,1019 C1556.49302,1018.69483 1556.49086,1019.11732 1556.11538,1019 C1556.49086,1027.93587 1549.97203,1035 1541.69231,1035 C1539.00545,1035 1536.28174,1034.06523 1534,1032 C1534.40556,1032.50731 1534.8181,1032.53353 1534.96154,1033 C1537.65861,1032.53353 1539.89134,1031.65392 1541.69231,1030 C1539.39067,1030.1736 1537.49266,1028.58271 1536.88462,1026 Z" id="final-shape" sketch:type="MSShapeGroup"></path>
        </g>
    </g>
</svg>